<?xml version="1.0" encoding="UTF-8"?>
<svg width="24px" height="24px" viewBox="0 0 24 24" version="1.1" xmlns="http://www.w3.org/2000/svg" xmlns:xlink="http://www.w3.org/1999/xlink">
    <title data-bind="text:txtMainMenu">Main Menu</title>
    <defs>
        <path d="M21.5,6 L2.5,6 C2.224,6 2,5.776 2,5.5 C2,5.224 2.224,5 2.5,5 L21.5,5 C21.776,5 22,5.224 22,5.5 C22,5.776 21.776,6 21.5,6 Z M21.5,19 L2.5,19
                  C2.224,19 2,18.776 2,18.5 C2,18.224 2.224,18 2.5,18 L21.5,18 C21.776,18 22,18.224 22,18.5 C22,18.776 21.776,19 21.5,19 Z M21.5,12.5 L2.5,12.5
                  C2.224,12.5 2,12.276 2,12 C2,11.724 2.224,11.5 2.5,11.5 L21.5,11.5 C21.776,11.5 22,11.724 22,12 C22,12.276 21.776,12.5 21.5,12.5 Z" id="hamburger-path"></path>
    </defs>
    <g id="icons-/-24-/-hamburger" stroke="none" stroke-width="1" fill="none" fill-rule="evenodd">
        <mask id="hamburger-mask" fill="white">
            <use xlink:href="#hamburger-path"></use>
        </mask>
        <use id="Combined-Shape" fill="#000000" fill-rule="nonzero" xlink:href="#hamburger-path"></use>
        <g id="_utils-/-colors-/-White" mask="url(#hamburger-mask)" fill="#FFFFFF" fill-rule="nonzero">
            <rect id="Rectangle" x="0" y="0" width="24" height="24"></rect>
        </g>
    </g>
</svg>